
    <svg xmlns="http://www.w3.org/2000/svg" viewBox="0 0 680 270" role="img" aria-label="Return vs TOPIX chart">
      <rect width="680" height="270" fill="#f5f6f8" />
      <rect x="8" y="8" width="664" height="254" rx="12" fill="#ffffff" stroke="#d7dce3" />
      
        <line x1="42" y1="206.00" x2="576" y2="206.00" stroke="#d7dce3" stroke-width="1" />
        <text x="586" y="206.00" fill="#6b7280" font-size="11" font-family="SFMono-Regular, Menlo, monospace" dominant-baseline="middle">-4.75%</text>
        
        <line x1="42" y1="116.00" x2="576" y2="116.00" stroke="#d7dce3" stroke-width="1" />
        <text x="586" y="116.00" fill="#6b7280" font-size="11" font-family="SFMono-Regular, Menlo, monospace" dominant-baseline="middle">-0.78%</text>
        
        <line x1="42" y1="26.00" x2="576" y2="26.00" stroke="#d7dce3" stroke-width="1" />
        <text x="586" y="26.00" fill="#6b7280" font-size="11" font-family="SFMono-Regular, Menlo, monospace" dominant-baseline="middle">3.18%</text>
        
      <line x1="42" y1="98.23" x2="576" y2="98.23" stroke="#9ca3af" stroke-width="1" stroke-dasharray="4 4" />
      <polyline points="42.00,97.78 118.29,74.36 194.57,93.07 270.86,122.97 347.14,89.04 423.43,38.20 499.71,60.50 576.00,55.97" fill="none" stroke="#1d4ed8" stroke-width="4" stroke-linecap="round" stroke-linejoin="round" />
      <polyline points="42.00,82.07 118.29,60.12 194.57,26.00 270.86,49.20 347.14,122.68 423.43,206.00 499.71,162.91 576.00,154.17" fill="none" stroke="#7c3aed" stroke-width="4" stroke-linecap="round" stroke-linejoin="round" />
      <text x="42.00" y="238" text-anchor="middle" fill="#6b7280" font-size="11" font-family="SFMono-Regular, Menlo, monospace">02-25</text><text x="118.29" y="238" text-anchor="middle" fill="#6b7280" font-size="11" font-family="SFMono-Regular, Menlo, monospace">02-26</text><text x="194.57" y="238" text-anchor="middle" fill="#6b7280" font-size="11" font-family="SFMono-Regular, Menlo, monospace">02-27</text><text x="270.86" y="238" text-anchor="middle" fill="#6b7280" font-size="11" font-family="SFMono-Regular, Menlo, monospace">03-02</text><text x="347.14" y="238" text-anchor="middle" fill="#6b7280" font-size="11" font-family="SFMono-Regular, Menlo, monospace">03-03</text><text x="423.43" y="238" text-anchor="middle" fill="#6b7280" font-size="11" font-family="SFMono-Regular, Menlo, monospace">03-04</text><text x="499.71" y="238" text-anchor="middle" fill="#6b7280" font-size="11" font-family="SFMono-Regular, Menlo, monospace">03-05</text><text x="576.00" y="238" text-anchor="middle" fill="#6b7280" font-size="11" font-family="SFMono-Regular, Menlo, monospace">03-06</text>
      
      <line x1="42" y1="252" x2="60" y2="252" stroke="#1d4ed8" stroke-width="4" stroke-linecap="round" />
      <text x="66" y="252" fill="#6b7280" font-size="11" font-family="SFMono-Regular, Menlo, monospace" dominant-baseline="middle">Return</text>
      <line x1="182" y1="252" x2="200" y2="252" stroke="#7c3aed" stroke-width="4" stroke-linecap="round" />
      <text x="206" y="252" fill="#6b7280" font-size="11" font-family="SFMono-Regular, Menlo, monospace" dominant-baseline="middle">TOPIX</text>
    
    </svg>
    