
    <svg xmlns="http://www.w3.org/2000/svg" viewBox="0 0 680 250" role="img" aria-label="residual_equity chart">
      <rect width="680" height="250" fill="#f5f6f8" />
      <rect x="8" y="8" width="664" height="234" rx="12" fill="#ffffff" stroke="#d7dce3" />
      
        <line x1="42" y1="200.00" x2="576" y2="200.00" stroke="#d7dce3" stroke-width="1" />
        <text x="586" y="200.00" fill="#6b7280" font-size="11" font-family="SFMono-Regular, Menlo, monospace" dominant-baseline="middle">-0.70%</text>
        
        <line x1="42" y1="113.00" x2="576" y2="113.00" stroke="#d7dce3" stroke-width="1" />
        <text x="586" y="113.00" fill="#6b7280" font-size="11" font-family="SFMono-Regular, Menlo, monospace" dominant-baseline="middle">0.31%</text>
        
        <line x1="42" y1="26.00" x2="576" y2="26.00" stroke="#d7dce3" stroke-width="1" />
        <text x="586" y="26.00" fill="#6b7280" font-size="11" font-family="SFMono-Regular, Menlo, monospace" dominant-baseline="middle">1.32%</text>
        
      <line x1="42" y1="139.68" x2="576" y2="139.68" stroke="#9ca3af" stroke-width="1" stroke-dasharray="4 4" />
      <polygon points="42.00,200.00 42.00,133.79 118.29,26.00 194.57,58.60 270.86,200.00 347.14,177.40 423.43,113.74 499.71,150.27 576.00,124.99 576.00,200.00" fill="#0f766e" fill-opacity="0.14" />
      <polyline points="42.00,133.79 118.29,26.00 194.57,58.60 270.86,200.00 347.14,177.40 423.43,113.74 499.71,150.27 576.00,124.99" fill="none" stroke="#0f766e" stroke-width="4" stroke-linecap="round" stroke-linejoin="round" />
      <text x="42.00" y="232" text-anchor="middle" fill="#6b7280" font-size="11" font-family="SFMono-Regular, Menlo, monospace">02-25</text><text x="118.29" y="232" text-anchor="middle" fill="#6b7280" font-size="11" font-family="SFMono-Regular, Menlo, monospace">02-26</text><text x="194.57" y="232" text-anchor="middle" fill="#6b7280" font-size="11" font-family="SFMono-Regular, Menlo, monospace">02-27</text><text x="270.86" y="232" text-anchor="middle" fill="#6b7280" font-size="11" font-family="SFMono-Regular, Menlo, monospace">03-02</text><text x="347.14" y="232" text-anchor="middle" fill="#6b7280" font-size="11" font-family="SFMono-Regular, Menlo, monospace">03-03</text><text x="423.43" y="232" text-anchor="middle" fill="#6b7280" font-size="11" font-family="SFMono-Regular, Menlo, monospace">03-04</text><text x="499.71" y="232" text-anchor="middle" fill="#6b7280" font-size="11" font-family="SFMono-Regular, Menlo, monospace">03-05</text><text x="576.00" y="232" text-anchor="middle" fill="#6b7280" font-size="11" font-family="SFMono-Regular, Menlo, monospace">03-06</text>
    </svg>
    